<svg width="20" height="20" viewBox="0 0 20 20" fill="none" xmlns="http://www.w3.org/2000/svg">
<path d="M1.66675 15.8333C1.66675 17.25 2.75008 18.3333 4.16675 18.3333H15.8334C17.2501 18.3333 18.3334 17.25 18.3334 15.8333V9.16663H1.66675V15.8333ZM15.8334 3.33329H14.1667V2.49996C14.1667 1.99996 13.8334 1.66663 13.3334 1.66663C12.8334 1.66663 12.5001 1.99996 12.5001 2.49996V3.33329H7.50008V2.49996C7.50008 1.99996 7.16675 1.66663 6.66675 1.66663C6.16675 1.66663 5.83341 1.99996 5.83341 2.49996V3.33329H4.16675C2.75008 3.33329 1.66675 4.41663 1.66675 5.83329V7.49996H18.3334V5.83329C18.3334 4.41663 17.2501 3.33329 15.8334 3.33329Z" fill="black"/>
</svg>
